<svg class="a-toast-icon position-absolute a-toast-icon-success" width="32" height="32" viewBox="0 0 32 32" fill="none" xmlns="http://www.w3.org/2000/svg">
                    <rect width="32" height="32" rx="16" fill="white"></rect>
                    <path d="M14.4001 21.257L22.4572 13.1999L20.8572 11.5999L14.4001 18.057L11.143 14.7999L9.54296 16.3999L14.4001 21.257ZM16.0001 27.4284C14.4192 27.4284 12.9334 27.1282 11.543 26.5279C10.1525 25.9282 8.94296 25.1141 7.91439 24.0856C6.88582 23.057 6.07172 21.8475 5.4721 20.457C4.87172 19.0665 4.57153 17.5808 4.57153 15.9999C4.57153 14.4189 4.87172 12.9332 5.4721 11.5427C6.07172 10.1522 6.88582 8.94272 7.91439 7.91415C8.94296 6.88558 10.1525 6.0711 11.543 5.47072C12.9334 4.8711 14.4192 4.57129 16.0001 4.57129C17.5811 4.57129 19.0668 4.8711 20.4572 5.47072C21.8477 6.0711 23.0572 6.88558 24.0858 7.91415C25.1144 8.94272 25.9285 10.1522 26.5281 11.5427C27.1285 12.9332 27.4287 14.4189 27.4287 15.9999C27.4287 17.5808 27.1285 19.0665 26.5281 20.457C25.9285 21.8475 25.1144 23.057 24.0858 24.0856C23.0572 25.1141 21.8477 25.9282 20.4572 26.5279C19.0668 27.1282 17.5811 27.4284 16.0001 27.4284Z" fill="#06D6A0"></path>
                    </svg>