<svg width="24" height="24" viewBox="0 0 24 24" fill="none" xmlns="http://www.w3.org/2000/svg"><path d="M12 17C5.55 17 0.5 14.8 0.5 12C0.5 9.2 5.55 7 12 7C18.45 7 23.5 9.2 23.5 12C23.5 14.8 18.45 17 12 17ZM12 8C5.7 8 1.5 10.05 1.5 12C1.5 13.95 5.7 16 12 16C18.3 16 22.5 13.95 22.5 12C22.5 10.05 18.3 8 12 8Z" fill="white"></path><path d="M7.55004 22.3C7.05004 22.3 6.65004 22.2 6.25004 21.95C3.80004 20.55 4.45004 15.1 7.65004 9.49998C9.15004 6.89998 11 4.69998 12.8 3.29998C14.75 1.79998 16.5 1.34998 17.7 2.04998C18.95 2.74998 19.4 4.49998 19.1 6.94998C18.8 9.24998 17.8 11.95 16.3 14.55C14.8 17.15 12.95 19.35 11.15 20.75C9.85004 21.75 8.60004 22.3 7.55004 22.3ZM16.45 2.69998C15.65 2.69998 14.6 3.14998 13.45 4.04998C11.75 5.39998 10 7.49998 8.55004 9.99998C5.40004 15.45 5.10004 20.15 6.75004 21.1C7.60004 21.6 9.00004 21.15 10.55 19.95C12.25 18.6 14 16.5 15.45 14C16.9 11.5 17.85 8.94998 18.15 6.79998C18.4 4.79998 18.1 3.39998 17.25 2.89998C17 2.79998 16.75 2.69998 16.45 2.69998Z" fill="white"></path><path d="M16.5 22.3C14 22.3 10.4 19.25 7.70003 14.5C4.45003 8.90004 3.80003 3.45004 6.25003 2.05004C8.70003 0.650035 13.1 3.90004 16.35 9.50004C17.85 12.1 18.85 14.8 19.15 17.1C19.5 19.55 19 21.25 17.75 22C17.35 22.2 16.95 22.3 16.5 22.3ZM6.75003 2.90004C5.10003 3.85004 5.40003 8.55004 8.55003 14C11.7 19.45 15.6 22.05 17.25 21.1C18.1 20.6 18.4 19.2 18.15 17.2C17.85 15.05 16.9 12.5 15.45 10C12.3 4.55004 8.40003 1.95004 6.75003 2.90004Z" fill="white"></path><path d="M12 14C13.1046 14 14 13.1046 14 12C14 10.8954 13.1046 10 12 10C10.8954 10 10 10.8954 10 12C10 13.1046 10.8954 14 12 14Z" fill="white"></path></svg>