<svg class="a-arw-right position-absolute" width="24" height="24" viewBox="0 0 24 24" fill="none" xmlns="http://www.w3.org/2000/svg"><path fill-rule="evenodd" clip-rule="evenodd" d="M5.22734 1.59968C4.91612 1.42775 4.55992 1.35469 4.20615 1.39024C3.85238 1.42578 3.51783 1.56824 3.24704 1.79865C2.97625 2.02906 2.78207 2.33649 2.69034 2.68001C2.59869 3.02325 2.61397 3.38705 2.73359 3.72155L5.68487 12L2.73338 20.279C2.61368 20.6136 2.59867 20.9767 2.69034 21.32C2.78207 21.6635 2.97625 21.9709 3.24704 22.2013C3.51783 22.4317 3.85238 22.5742 4.20615 22.6097C4.55992 22.6453 4.91613 22.5722 5.22735 22.4003L21.0623 13.5312L21.065 13.5297C21.3373 13.3784 21.5643 13.1572 21.7226 12.8888C21.8813 12.6195 21.9651 12.3126 21.9651 12C21.9651 11.6874 21.8813 11.3805 21.7226 11.1112C21.5643 10.8428 21.3373 10.6216 21.065 10.4703L21.0623 10.4687L5.23245 1.6025L5.22734 1.59968ZM20.0895 12.2162L20.5782 11.3437L20.094 12.2187L20.0895 12.2162ZM4.84038 3.67527L19.7034 12L4.84038 20.3247L7.45166 13H12.75C13.3023 13 13.75 12.5523 13.75 12C13.75 11.4477 13.3023 11 12.75 11H7.45166L4.84038 3.67527Z" fill="black"></path></svg>