<svg class="a-nav-icon-svg" width="48" height="48" viewBox="0 0 48 48" fill="none" xmlns="http://www.w3.org/2000/svg"><path d="M7.42102 16.511C7.79371 16.0283 8.19706 15.5903 8.63093 15.1968L7.42102 16.511Z" fill="#1E1B18" fill-opacity="0.5" class="a-nav-stripes-bg"></path><path d="M5.41604 20.4057L12.0882 13.1577C12.7258 12.9423 13.3886 12.7945 14.0765 12.7146L4.88481 22.6995C5.01098 21.8941 5.18796 21.1295 5.41604 20.4057Z" fill="#1E1B18" fill-opacity="0.5" class="a-nav-stripes-bg"></path><path d="M4.68399 24.6342C4.6617 25.0397 4.65063 25.4541 4.65063 25.8775C4.65063 26.0468 4.65248 26.2147 4.65603 26.3813L17.1584 12.8002C16.699 12.7175 16.218 12.6677 15.7157 12.6506L4.68399 24.6342Z" fill="#1E1B18" fill-opacity="0.5" class="a-nav-stripes-bg"></path><path d="M18.4324 13.1328L4.75027 27.9956C4.80022 28.5075 4.86892 29.0053 4.95634 29.4884L19.5535 13.6316C19.1987 13.4363 18.825 13.2701 18.4324 13.1328Z" fill="#1E1B18" fill-opacity="0.5" class="a-nav-stripes-bg"></path><path d="M20.5512 14.2645L5.26758 30.8669C5.38694 31.3039 5.52376 31.7275 5.67775 32.138L21.4191 15.0382C21.1547 14.7581 20.8655 14.5002 20.5512 14.2645Z" fill="#1E1B18" fill-opacity="0.5" class="a-nav-stripes-bg"></path><path d="M22.1487 15.9625C22.2603 16.1323 22.365 16.3083 22.4631 16.4904V15.6208L24.9085 12.9644H26.4888L18.605 21.5285C17.5528 21.5518 16.6866 21.933 16.0066 22.6721C15.373 23.3609 15.0252 24.2982 14.9635 25.4842L6.78874 34.3644C6.57543 34.0273 6.37446 33.6735 6.18584 33.3028L22.1487 15.9625Z" fill="#1E1B18" fill-opacity="0.5" class="a-nav-stripes-bg"></path><path d="M7.47452 35.336C7.71878 35.6465 7.97609 35.9393 8.24631 36.2144L15.4878 28.348C15.2906 27.978 15.148 27.5607 15.06 27.0959L7.47452 35.336Z" fill="#1E1B18" fill-opacity="0.5" class="a-nav-stripes-bg"></path><path d="M19.9974 21.7326C20.3774 21.8644 20.7242 22.0597 21.038 22.3187L29.6494 12.9644H28.069L19.9974 21.7326Z" fill="#1E1B18" fill-opacity="0.5" class="a-nav-stripes-bg"></path><path d="M31.2297 12.9644L21.8088 23.1981C22.0251 23.547 22.1879 23.9424 22.2969 24.3846L32.5828 13.2112V12.9644H31.2297Z" fill="#1E1B18" fill-opacity="0.5" class="a-nav-stripes-bg"></path><path d="M32.5828 14.9278L22.463 25.9208C22.4584 26.7511 22.3246 27.4688 22.0612 28.0739L32.5828 16.6444V14.9278Z" fill="#1E1B18" fill-opacity="0.5" class="a-nav-stripes-bg"></path><path d="M32.5828 18.361L13.6036 38.9779C14.078 39.0537 14.565 39.097 15.0641 39.1081L32.5828 20.0777V18.361Z" fill="#1E1B18" fill-opacity="0.5" class="a-nav-stripes-bg"></path><path d="M32.5828 21.7943L16.7194 39.0266C17.4513 38.9346 18.1318 38.7676 18.7611 38.5252L32.5828 23.5109V21.7943Z" fill="#1E1B18" fill-opacity="0.5" class="a-nav-stripes-bg"></path><path d="M32.5828 25.2276L22.4631 36.2206V37.9372L32.5828 26.9442V25.2276Z" fill="#1E1B18" fill-opacity="0.5" class="a-nav-stripes-bg"></path><path d="M32.5828 28.6609L23.2579 38.7904H24.8382L32.5828 30.3775V28.6609Z" fill="#1E1B18" fill-opacity="0.5" class="a-nav-stripes-bg"></path><path d="M32.5828 32.0943L26.4184 38.7904H27.9989L32.5828 33.811V32.0943Z" fill="#1E1B18" fill-opacity="0.5" class="a-nav-stripes-bg"></path><path d="M32.5828 35.5276L29.5793 38.7904H31.1594L32.5828 37.2442V35.5276Z" fill="#1E1B18" fill-opacity="0.5" class="a-nav-stripes-bg"></path><path d="M36.3664 34.8509C36.4267 35.3177 36.5503 35.7555 36.7375 36.1643L43.2011 29.1429C42.8761 29.1028 42.5373 29.0828 42.1846 29.0828C42.0071 29.0828 41.8332 29.0877 41.6628 29.0975L36.3664 34.8509Z" fill="#1E1B18" fill-opacity="0.5" class="a-nav-stripes-bg"></path><path d="M39.7429 29.4662L36.4351 33.0596C36.6426 32.0819 37.1396 31.2447 37.926 30.5481C38.448 30.071 39.0536 29.7103 39.7429 29.4662Z" fill="#1E1B18" fill-opacity="0.5" class="a-nav-stripes-bg"></path><path d="M44.5099 29.4378L37.3824 37.1803C37.545 37.3745 37.726 37.5601 37.926 37.7372C38.0227 37.8228 38.1222 37.9045 38.2245 37.9823L45.6135 29.9557C45.2719 29.7448 44.9041 29.5723 44.5099 29.4378Z" fill="#1E1B18" fill-opacity="0.5" class="a-nav-stripes-bg"></path><path d="M46.5335 30.673L39.2464 38.5889C39.6233 38.7591 40.0286 38.8909 40.4624 38.9846L47.2837 31.5747C47.0779 31.2526 46.8279 30.952 46.5335 30.673Z" fill="#1E1B18" fill-opacity="0.5" class="a-nav-stripes-bg"></path><path d="M47.8046 32.7255L41.8883 39.1522C41.9859 39.1552 42.0847 39.1568 42.1846 39.1568C42.6717 39.1568 43.1324 39.1196 43.5668 39.0455L47.9996 34.2302C47.9999 34.2087 48 34.1871 48 34.1655C48 33.6539 47.9349 33.1739 47.8046 32.7255Z" fill="#1E1B18" fill-opacity="0.5" class="a-nav-stripes-bg"></path><path d="M47.264 36.7459L46.194 37.9084C46.2631 37.8532 46.3308 37.7961 46.3973 37.7372C46.7417 37.4322 47.0305 37.1017 47.264 36.7459Z" fill="#1E1B18" fill-opacity="0.5" class="a-nav-stripes-bg"></path><path d="M12.2991 38.6783L20.4447 29.8298C19.9347 30.095 19.3561 30.2275 18.7083 30.2275C18.6389 30.2275 18.5704 30.226 18.5025 30.223L11.1253 38.2369C11.5068 38.4097 11.8981 38.5568 12.2991 38.6783Z" fill="#1E1B18" fill-opacity="0.5" class="a-nav-stripes-bg"></path><path d="M10.063 37.6742L17.1892 29.933C16.8297 29.778 16.502 29.5617 16.2061 29.2843L9.10723 36.9957C9.3529 37.1939 9.60738 37.38 9.87079 37.554C9.93451 37.5949 9.99866 37.6349 10.063 37.6742Z" fill="#1E1B18" fill-opacity="0.5" class="a-nav-stripes-bg"></path><path d="M23.3283 12.9644L22.4631 13.9043V12.9644H23.3283Z" fill="#1E1B18" fill-opacity="0.5" class="a-nav-stripes-bg"></path><path fill-rule="evenodd" clip-rule="evenodd" d="M12.1001 10.8619C10.3541 10.8619 8.81407 11.32 7.4396 12.2277L7.43169 12.2329L7.42371 12.238C6.06771 13.108 4.9519 14.4088 4.10193 16.2167C3.29261 17.9722 2.86191 20.1077 2.86191 22.6644C2.86191 25.2168 3.29114 27.3688 4.10196 29.1579C4.9493 30.93 6.06548 32.2373 7.43171 33.1418C8.80567 34.0211 10.3488 34.467 12.1001 34.467C13.5811 34.467 14.7803 34.1729 15.7488 33.6432C16.743 33.0689 17.4762 32.3153 17.9836 31.3731L20.6744 32.0515V34.1464H27.9322V11.1824H20.6744V13.2774L17.9836 13.9558C17.4774 13.0157 16.748 12.281 15.7606 11.738L15.7487 11.7314L15.737 11.7246C14.7712 11.1693 13.577 10.8619 12.1001 10.8619ZM17.8125 9.63895V8.32053H30.7942V37.0084H17.8125V35.7224C17.6039 35.866 17.3876 36.0022 17.1635 36.131L17.1518 36.1378L17.1398 36.1444C15.6682 36.9538 13.9711 37.3289 12.1001 37.3289C9.82529 37.3289 7.73829 36.7386 5.8784 35.5455L5.87041 35.5404L5.86249 35.5351C3.99959 34.3049 2.55611 32.565 1.51309 30.378L1.50742 30.3661L1.50198 30.3541C0.484678 28.1161 0 25.5402 0 22.6644C0 19.7895 0.484411 17.2252 1.50542 15.013L1.50945 15.0043C2.55042 12.7881 3.99557 11.0394 5.87039 9.83434C7.72981 8.6086 9.81979 8 12.1001 8C13.9762 8 15.6781 8.39262 17.1517 9.23686C17.38 9.36283 17.6003 9.49688 17.8125 9.63895ZM11.7339 18.4903C12.7247 17.4133 14.0164 16.8834 15.4886 16.8834C16.9609 16.8834 18.2526 17.4133 19.2434 18.4903C20.2586 19.5938 20.6744 21.051 20.6744 22.6644C20.6744 24.2779 20.2586 25.7351 19.2434 26.8386C18.2526 27.9156 16.9609 28.4455 15.4886 28.4455C14.0164 28.4455 12.7247 27.9156 11.7339 26.8386C10.7186 25.7351 10.3029 24.2779 10.3029 22.6644C10.3029 21.051 10.7186 19.5938 11.7339 18.4903ZM15.4886 19.7453C14.763 19.7453 14.2535 19.9785 13.8401 20.4279C13.4511 20.8507 13.1648 21.5305 13.1648 22.6644C13.1648 23.7984 13.4511 24.4782 13.8401 24.9009C14.2535 25.3504 14.763 25.5836 15.4886 25.5836C16.2143 25.5836 16.7237 25.3504 17.1372 24.9009C17.5262 24.4782 17.8125 23.7984 17.8125 22.6644C17.8125 21.5305 17.5262 20.8507 17.1372 20.4279C16.7237 19.9785 16.2143 19.7453 15.4886 19.7453ZM38.9649 27.3007C37.4681 27.3007 36.4208 27.7065 35.672 28.3912L35.6636 28.3988L35.6552 28.4063C34.9026 29.0729 34.5347 29.8844 34.5347 30.9525C34.5347 31.9802 34.8952 32.7799 35.6552 33.453C36.4031 34.1155 37.4565 34.5128 38.9649 34.5128C40.4355 34.5128 41.4765 34.1194 42.2289 33.453C42.9888 32.7799 43.3494 31.9802 43.3494 30.9525C43.3494 29.8844 42.9815 29.0729 42.2289 28.4063L42.2204 28.3988L42.2121 28.3912C41.4587 27.7023 40.4237 27.3007 38.9649 27.3007ZM33.7492 26.2713C35.1361 25.0076 36.9248 24.4388 38.9649 24.4388C40.9821 24.4388 42.7525 25.0118 44.1348 26.2713C45.5135 27.4964 46.2113 29.0938 46.2113 30.9525C46.2113 32.7945 45.5034 34.3758 44.1264 35.5954C42.7419 36.8217 40.9744 37.3747 38.9649 37.3747C36.9322 37.3747 35.1465 36.8256 33.7576 35.5954C32.3807 34.3758 31.6728 32.7945 31.6728 30.9525C31.6728 29.0938 32.3705 27.4964 33.7492 26.2713Z" fill="#1E1B18"></path></svg>