<svg width="32" height="32" viewBox="0 0 32 32" fill="none" xmlns="http://www.w3.org/2000/svg"><path d="M15.9553 1.33301L2 6.18967L4.20533 24.2717L15.97 30.6663L27.7953 24.185L30 6.10367L15.9553 1.33301Z" fill="#BDBDBD"></path><path d="M28.5453 7.01819L16 2.75684V29.1302L26.5547 23.3449L28.5453 7.01819Z" fill="#B71C1C"></path><path d="M15.9605 2.74316L3.4538 7.09581L5.44513 23.4285L15.9672 29.1471L15.9998 29.1298V2.7565L15.9605 2.74316Z" fill="#DD2C00"></path><path d="M16 3.99707V10.3357L21.7187 22.6664H24.658L16 3.99707Z" fill="#BDBDBD"></path><path d="M7.3418 22.6664H10.2811L15.9998 10.3357V3.99707L7.3418 22.6664Z" fill="#EEEEEE"></path><path d="M16 16H20V18.6667H16V16Z" fill="#BDBDBD"></path><path d="M12 16H16V18.6667H12V16Z" fill="#EEEEEE"></path></svg>