<svg width="24" height="24" viewBox="0 0 24 24" fill="none" xmlns="http://www.w3.org/2000/svg"><path d="M10.0175 16.8102C10.167 16.3567 10.183 15.8557 10.038 15.3187C10.0183 15.3296 9.99857 15.3404 9.97899 15.3511C9.96827 15.357 9.95759 15.3628 9.94698 15.3687L9.94848 15.3717C9.94848 15.3717 8.90798 15.8632 8.18498 16.6277C7.51298 17.3387 7.32498 18.2302 7.69998 18.4477C8.04698 18.6492 8.85698 18.4102 9.43698 17.7777C9.62698 17.5702 9.78248 17.3457 9.89798 17.1057C9.92098 17.0577 9.94248 17.0087 9.96248 16.9597C9.98248 16.9102 10.001 16.8607 10.0175 16.8102Z" fill="white"></path><path fill-rule="evenodd" clip-rule="evenodd" d="M22 11.9946C22 6.48313 17.5325 2.01562 12.021 2.01562C6.50999 2.01562 2.04249 6.48313 2.04199 11.9946C2.04199 17.5061 6.50999 21.9736 12.021 21.9736C17.5325 21.9736 22 17.5056 22 11.9946ZM12.109 4.91966C14.89 3.93166 17.8285 4.51416 18.2805 6.28666C18.725 8.02916 17.212 10.1142 15.275 10.8642C13.545 11.5332 12.1145 11.4277 11.527 11.2347C10.8595 11.0152 10.4675 10.5747 10.372 10.3262L10.3705 10.3224C10.3329 10.2245 10.2713 10.0644 10.372 10.0087C10.4345 9.97366 10.4595 9.98215 10.6275 10.1672C10.787 10.3432 11.4285 10.8152 12.647 10.6787C15.8445 10.3202 17.7705 7.83566 17.162 6.49866C16.736 5.56316 14.271 5.14066 11.192 6.67516C7.43348 8.54816 7.22948 10.0922 7.19748 10.6787C7.13665 11.7937 8.11142 12.5434 9.09055 13.2965C9.52777 13.6328 9.96585 13.9697 10.313 14.3402C10.339 14.3687 10.365 14.3972 10.39 14.4257C10.7305 14.2987 11.2015 14.2277 11.9505 14.2147C13.7695 14.1837 14.7965 15.3827 14.7545 16.4547C14.721 17.2992 13.946 17.6467 13.802 17.6712C13.697 17.6887 13.6405 17.6917 13.6255 17.6097C13.6155 17.5537 13.6525 17.5272 13.7755 17.4512C13.898 17.3752 14.2655 17.1237 14.331 16.6662C14.397 16.2087 14.0535 15.1157 12.303 14.9112C11.683 14.8387 11.1945 14.8882 10.776 14.9987C11.0795 15.6682 11.1375 17.0132 10.439 18.0552C9.71498 19.1347 8.36848 19.7912 7.05598 19.4262C6.63248 19.3082 5.99248 18.4327 6.54448 17.2127C7.06748 16.0562 9.30248 14.9252 9.60798 14.7747V14.7692C9.34826 14.5454 8.99517 14.3022 8.6063 14.0343C7.44477 13.2341 5.96394 12.214 5.69798 10.8367C5.59748 10.3157 5.84148 9.06866 7.37348 7.63566C8.66198 6.43066 10.454 5.50766 12.109 4.91966Z" fill="white"></path></svg>