<svg width="48" height="48" viewBox="0 0 48 48" fill="none" xmlns="http://www.w3.org/2000/svg"><path d="M18.6667 24C18.6667 26.9454 21.0545 29.3332 24.0001 29.3332C26.9455 29.3332 29.3333 26.9454 29.3333 24C29.3333 21.0544 26.9455 18.6666 24.0001 18.6666C21.0545 18.6666 18.6667 21.0544 18.6667 24Z" fill="#1E1B18"></path><path fill-rule="evenodd" clip-rule="evenodd" d="M30.4653 10.9762C28.7781 10.8992 28.2721 10.8829 24 10.8829C19.7278 10.8829 19.2217 10.8992 17.5345 10.9762C15.9746 11.0474 15.1274 11.308 14.5636 11.5271C13.8168 11.8173 13.2838 12.1641 12.7239 12.7239C12.164 13.2838 11.8172 13.8169 11.5271 14.5636C11.3079 15.1274 11.0473 15.9746 10.9761 17.5345C10.8991 19.2217 10.8829 19.7278 10.8829 24C10.8829 28.2721 10.8991 28.7781 10.9761 30.4653C11.0473 32.0252 11.3079 32.8724 11.5271 33.4362C11.8172 34.183 12.164 34.716 12.7239 35.2759C13.2838 35.8358 13.8168 36.1825 14.5636 36.4728C15.1274 36.6919 15.9746 36.9525 17.5345 37.0236C19.2215 37.1006 19.7274 37.1169 24 37.1169C28.2724 37.1169 28.7784 37.1006 30.4653 37.0236C32.0252 36.9525 32.8724 36.6919 33.4362 36.4728C34.183 36.1825 34.716 35.8358 35.2759 35.2759C35.8358 34.716 36.1825 34.183 36.4728 33.4362C36.6919 32.8724 36.9525 32.0252 37.0237 30.4653C37.1006 28.7781 37.1169 28.2721 37.1169 24C37.1169 19.7278 37.1006 19.2217 37.0237 17.5345C36.9525 15.9746 36.6919 15.1274 36.4728 14.5636C36.1825 13.8169 35.8358 13.2838 35.2759 12.7239C34.716 12.1641 34.183 11.8173 33.4362 11.5271C32.8724 11.308 32.0252 11.0474 30.4653 10.9762ZM15.7838 24C15.7838 19.4622 19.4623 15.7837 24.0001 15.7837C28.5377 15.7837 32.2162 19.4622 32.2162 24C32.2162 28.5376 28.5377 32.2161 24.0001 32.2161C19.4623 32.2161 15.7838 28.5376 15.7838 24ZM34.4607 15.4591C34.4607 16.5195 33.6011 17.3791 32.5407 17.3791C31.4803 17.3791 30.6207 16.5195 30.6207 15.4591C30.6207 14.3987 31.4803 13.5392 32.5407 13.5392C33.6011 13.5392 34.4607 14.3987 34.4607 15.4591Z" fill="#1E1B18"></path><path fill-rule="evenodd" clip-rule="evenodd" d="M48 24C48 37.2548 37.2548 48 24 48C10.7452 48 0 37.2548 0 24C0 10.7452 10.7452 0 24 0C37.2548 0 48 10.7452 48 24ZM17.4032 8.09631C19.1097 8.01844 19.6546 8 24 8C28.3452 8 28.8901 8.01844 30.5966 8.09631C32.2996 8.174 33.4628 8.44444 34.4804 8.84C35.5326 9.24887 36.4249 9.796 37.3144 10.6855C38.2039 11.5749 38.751 12.4672 39.1599 13.5194C39.5554 14.537 39.8259 15.7002 39.9036 17.4032C39.9814 19.1097 39.9998 19.6546 39.9998 24C39.9998 28.3452 39.9814 28.8901 39.9036 30.5966C39.8259 32.2996 39.5554 33.4628 39.1599 34.4804C38.751 35.5326 38.2039 36.4249 37.3144 37.3144C36.4249 38.2039 35.5326 38.751 34.4804 39.1599C33.4628 39.5554 32.2996 39.8259 30.5966 39.9036C28.8901 39.9814 28.3452 39.9998 24 39.9998C19.6546 39.9998 19.1097 39.9814 17.4032 39.9036C15.7002 39.8259 14.537 39.5554 13.5193 39.1599C12.4672 38.751 11.5749 38.2039 10.6854 37.3144C9.79593 36.4249 9.24881 35.5326 8.83994 34.4804C8.44437 33.4628 8.17394 32.2996 8.09625 30.5966C8.01838 28.8901 8 28.3452 8 24C8 19.6546 8.01838 19.1097 8.09625 17.4032C8.17394 15.7002 8.44437 14.537 8.83994 13.5194C9.24881 12.4672 9.79593 11.5749 10.6854 10.6855C11.5749 9.796 12.4672 9.24887 13.5193 8.84C14.537 8.44444 15.7002 8.174 17.4032 8.09631Z" fill="#1E1B18"></path></svg>