<svg width="32" height="32" viewBox="0 0 32 32" fill="none" xmlns="http://www.w3.org/2000/svg"><path d="M4 28V4H28V28H4Z" fill="#FFD600"></path><path d="M19.692 21.965C20.1533 22.7143 20.6547 23.4323 21.7167 23.4323C22.6087 23.4323 23.0767 22.989 23.0767 22.3757C23.0767 21.6417 22.5927 21.381 21.6113 20.9537L21.0733 20.7243C19.5207 20.0657 18.488 19.2403 18.488 17.497C18.488 15.8903 19.718 14.6677 21.64 14.6677C23.0087 14.6677 23.992 15.1417 24.7013 16.383L23.0253 17.4543C22.6566 16.7957 22.258 16.5363 21.64 16.5363C21.0093 16.5363 20.61 16.9343 20.61 17.4543C20.61 18.097 21.01 18.357 21.9333 18.755L22.4713 18.9843C24.3013 19.7637 25.3333 20.5597 25.3333 22.349C25.3333 24.277 23.8107 25.3337 21.7667 25.3337C19.7673 25.3337 18.632 24.3303 18 23.0883L19.692 21.965ZM11.968 22.0197C12.3053 22.6237 12.818 23.0883 13.5553 23.0883C14.2607 23.0883 14.6667 22.8097 14.6667 21.7263V14.667H16.8887V22.0677C16.8887 24.3123 15.5867 25.3337 13.6853 25.3337C11.9673 25.3337 10.7273 24.1697 10.222 23.0883L11.968 22.0197Z" fill="#000001"></path></svg>