<svg width="32" height="32" viewBox="0 0 32 32" fill="none" xmlns="http://www.w3.org/2000/svg"><path fill-rule="evenodd" clip-rule="evenodd" d="M16.028 2.68848C23.3767 2.68848 29.3333 8.64514 29.3333 15.9938C29.3333 23.3418 23.3767 29.2991 16.028 29.2991C8.67999 29.2991 2.72266 23.3425 2.72266 15.9938C2.72332 8.64514 8.67999 2.68848 16.028 2.68848Z" fill="#F06292"></path><path d="M24.374 8.38286C23.7713 6.01953 19.8533 5.24286 16.1453 6.56019C13.9387 7.34419 11.5493 8.57486 9.83134 10.1815C7.78867 12.0922 7.46334 13.7549 7.59734 14.4495C8.07067 16.9009 11.43 18.5035 12.8107 19.6929V19.7002C12.4033 19.9009 9.42334 21.4089 8.726 22.9509C7.99 24.5775 8.84334 25.7449 9.408 25.9022C11.158 26.3889 12.9533 25.5135 13.9187 24.0742C14.85 22.6849 14.7727 20.8915 14.368 19.9989C14.926 19.8515 15.5773 19.7855 16.404 19.8822C18.738 20.1549 19.196 21.6122 19.108 22.2222C19.0207 22.8322 18.5307 23.1675 18.3673 23.2689C18.2033 23.3702 18.154 23.4055 18.1673 23.4802C18.1873 23.5895 18.2627 23.5855 18.4027 23.5622C18.5947 23.5295 19.628 23.0662 19.6727 21.9402C19.7287 20.5109 18.3593 18.9122 15.934 18.9535C14.9353 18.9709 14.3073 19.0655 13.8533 19.2349C13.82 19.1969 13.7853 19.1589 13.7507 19.1209C12.2513 17.5209 9.47934 16.3895 9.59667 14.2389C9.63934 13.4569 9.91134 11.3982 14.9227 8.90086C19.028 6.85486 22.3147 7.41819 22.8827 8.66553C23.694 10.4482 21.126 13.7609 16.8627 14.2389C15.238 14.4209 14.3827 13.7915 14.17 13.5569C13.946 13.3102 13.9127 13.2989 13.8293 13.3455C13.6933 13.4209 13.7793 13.6389 13.8293 13.7689C13.9567 14.1002 14.4793 14.6875 15.3693 14.9802C16.1527 15.2375 18.06 15.3782 20.3667 14.4862C22.9493 13.4862 24.9667 10.7062 24.374 8.38286ZM13.384 20.4255C13.5773 21.1415 13.556 21.8095 13.3567 22.4142C13.3347 22.4815 13.31 22.5475 13.2833 22.6135C13.2567 22.6789 13.228 22.7442 13.1973 22.8082C13.0433 23.1282 12.836 23.4275 12.5827 23.7042C11.8093 24.5475 10.7293 24.8662 10.2667 24.5975C9.76667 24.3075 10.0173 23.1189 10.9133 22.1709C11.8773 21.1515 13.2647 20.4962 13.2647 20.4962L13.2627 20.4922C13.3027 20.4702 13.3433 20.4482 13.384 20.4255Z" fill="white"></path></svg>