<svg width="80" height="80" viewBox="0 0 80 80" fill="none" xmlns="http://www.w3.org/2000/svg">
            <path d="M46.7678 15.7322C45.7915 14.7559 44.2085 14.7559 43.2322 15.7322C42.2559 16.7085 42.2559 18.2915 43.2322 19.2678L61.4645 37.5H15C13.6193 37.5 12.5 38.6193 12.5 40C12.5 41.3807 13.6193 42.5 15 42.5H61.4645L43.2322 60.7322C42.2559 61.7085 42.2559 63.2915 43.2322 64.2678C44.2085 65.2441 45.7915 65.2441 46.7678 64.2678L69.2678 41.7678C69.7254 41.3101 69.9685 40.7192 69.9971 40.1199C69.999 40.08 70 40.04 70 40" fill="black"></path>
            <path d="M69.9999 39.9769C69.9941 39.3448 69.7501 38.7145 69.2678 38.2322L46.7678 15.7322" fill="black"></path>
            </svg>