<svg width="32" height="32" viewBox="0 0 32 32" fill="none" xmlns="http://www.w3.org/2000/svg"><path d="M4 6.66667C4 5.194 5.194 4 6.66667 4H25.3333C26.806 4 28 5.194 28 6.66667V25.3333C28 26.806 26.806 28 25.3333 28H6.66667C5.194 28 4 26.806 4 25.3333V6.66667Z" fill="#03A9F4"></path><path d="M13.344 12.7822H12.0093V15.7382H13.3247C13.6893 15.7382 13.9713 15.6189 14.1713 15.3802C14.3713 15.1416 14.4707 14.7942 14.4707 14.3382C14.4707 13.8649 14.3687 13.4889 14.1647 13.2089C13.9607 12.9289 13.6867 12.7869 13.344 12.7822Z" fill="#020F16"></path><path d="M6 6V26H26V6H6ZM15.5767 16.526C15.026 17.0647 14.262 17.3333 13.2853 17.3333H12.0093V20.6667H10.0953V11.1873H13.3247C14.262 11.1873 15.01 11.4787 15.5673 12.06C16.1247 12.6413 16.404 13.3967 16.404 14.3253C16.404 15.254 16.128 15.9873 15.5767 16.526ZM21.788 20.224C21.3153 20.606 20.694 20.7967 19.926 20.7967C19.4093 20.7967 18.9533 20.696 18.5587 20.494C18.164 20.292 17.854 20.0107 17.6307 19.6507C17.4073 19.2907 17.2953 18.902 17.2953 18.4853H19.0467C19.056 18.806 19.13 19.0473 19.2713 19.208C19.4127 19.3687 19.6433 19.4487 19.9647 19.4487C20.4593 19.4487 20.7067 19.2253 20.7067 18.778C20.7067 18.622 20.632 18.4773 20.482 18.3453C20.332 18.2133 20 18.0347 19.4833 17.8087C18.724 17.5007 18.202 17.182 17.9173 16.8513C17.6327 16.5207 17.4907 16.1113 17.4907 15.6207C17.4907 15.004 17.7133 14.4953 18.158 14.094C18.6027 13.6927 19.1927 13.492 19.9253 13.492C20.6973 13.492 21.316 13.692 21.7807 14.0907C22.2453 14.4893 22.4773 15.026 22.4773 15.6987H20.6347C20.6347 15.126 20.3967 14.8393 19.9187 14.8393C19.7233 14.8393 19.5633 14.9 19.4367 15.0213C19.31 15.1427 19.248 15.3127 19.248 15.5293C19.248 15.6853 19.3173 15.8233 19.4567 15.9427C19.596 16.062 19.9227 16.2327 20.44 16.454C21.1913 16.732 21.7213 17.0413 22.032 17.382C22.3427 17.7227 22.4973 18.1647 22.4973 18.7067C22.4973 19.3367 22.2607 19.842 21.788 20.224Z" fill="#020F16"></path></svg>