<svg width="32" height="32" viewBox="0 0 32 32" fill="none" xmlns="http://www.w3.org/2000/svg"><path d="M17.3333 11.3333H12C9.42265 11.3333 7.33331 9.244 7.33331 6.66667C7.33331 4.08933 9.42265 2 12 2H17.3333V11.3333Z" fill="#E64A19"></path><path d="M16.6666 20.6663H12C9.42265 20.6663 7.33331 18.577 7.33331 15.9997C7.33331 13.4223 9.42265 11.333 12 11.333H16.6666V20.6663Z" fill="#7C4DFF"></path><path d="M12 30.0003C9.42265 30.0003 7.33331 27.911 7.33331 25.3337C7.33331 22.7563 9.42265 20.667 12 20.667H16.6666V25.3337C16.6666 27.911 14.5773 30.0003 12 30.0003Z" fill="#66BB6A"></path><path d="M21.3334 11.3333H16.6667V2H21.3334C23.9107 2 26 4.08933 26 6.66667C26 9.244 23.9107 11.3333 21.3334 11.3333Z" fill="#FF7043"></path><path d="M21.3334 20.6663C23.9107 20.6663 26 18.577 26 15.9997C26 13.4223 23.9107 11.333 21.3334 11.333C18.756 11.333 16.6667 13.4223 16.6667 15.9997C16.6667 18.577 18.756 20.6663 21.3334 20.6663Z" fill="#29B6F6"></path></svg>