<svg width="32" height="32" viewBox="0 0 32 32" fill="none" xmlns="http://www.w3.org/2000/svg"><path d="M4 6.66667C4 5.194 5.194 4 6.66667 4H25.3333C26.806 4 28 5.194 28 6.66667V25.3333C28 26.806 26.806 28 25.3333 28H6.66667C5.194 28 4 26.806 4 25.3333V6.66667Z" fill="#FF5722"></path><path d="M6 6V26H26V6H6ZM15.794 20.6667L15.286 18.7267H12.6753L12.168 20.6667H10.1433L13.1053 11.1873H14.8567L17.8387 20.6667H15.794ZM20.5667 20.6667H18.718V13.6227H20.5667V20.6667ZM20.368 12.5027C20.1873 12.6893 19.944 12.7827 19.6353 12.7827C19.3267 12.7827 19.0833 12.6893 18.9027 12.5027C18.722 12.316 18.6327 12.0813 18.6327 11.7993C18.6327 11.5127 18.724 11.2787 18.906 11.096C19.088 10.9133 19.332 10.8227 19.6353 10.8227C19.9387 10.8227 20.182 10.914 20.3647 11.096C20.5473 11.278 20.638 11.5127 20.638 11.7993C20.638 12.0813 20.548 12.316 20.368 12.5027Z" fill="#1C0802"></path><path d="M13.0927 17.1316H14.8633L13.978 13.7529L13.0927 17.1316Z" fill="#1C0802"></path></svg>