<svg width="32" height="32" viewBox="0 0 32 32" fill="none" xmlns="http://www.w3.org/2000/svg"><path d="M16 22.6663C7.39999 22.6663 0.666656 19.733 0.666656 15.9997C0.666656 12.2663 7.39999 9.33301 16 9.33301C24.6 9.33301 31.3333 12.2663 31.3333 15.9997C31.3333 19.733 24.6 22.6663 16 22.6663ZM16 10.6663C7.59999 10.6663 1.99999 13.3997 1.99999 15.9997C1.99999 18.5997 7.59999 21.333 16 21.333C24.4 21.333 30 18.5997 30 15.9997C30 13.3997 24.4 10.6663 16 10.6663Z" fill="#80DEEA"></path><path d="M10.0667 29.7336C9.40001 29.7336 8.86668 29.6003 8.33335 29.267C5.06668 27.4003 5.93335 20.1336 10.2 12.667C12.2 9.2003 14.6667 6.26697 17.0667 4.4003C19.6667 2.4003 22 1.8003 23.6 2.73363C25.2667 3.66697 25.8667 6.0003 25.4667 9.26697C25.0667 12.3336 23.7333 15.9336 21.7333 19.4003C19.7333 22.867 17.2667 25.8003 14.8667 27.667C13.1333 29.0003 11.4667 29.7336 10.0667 29.7336ZM21.9333 3.6003C20.8667 3.6003 19.4667 4.2003 17.9333 5.4003C15.6667 7.2003 13.3333 10.0003 11.4 13.3336C7.20001 20.6003 6.80001 26.867 9.00001 28.1336C10.1333 28.8003 12 28.2003 14.0667 26.6003C16.3333 24.8003 18.6667 22.0003 20.6 18.667C22.5333 15.3336 23.8 11.9336 24.2 9.06697C24.5333 6.4003 24.1333 4.53363 23 3.86697C22.6667 3.73363 22.3333 3.6003 21.9333 3.6003Z" fill="#80DEEA"></path><path d="M22 29.7334C18.6667 29.7334 13.8667 25.6667 10.2667 19.3334C5.93332 11.8667 5.06665 4.60005 8.33332 2.73338C11.6 0.866714 17.4667 5.20005 21.8 12.6667C23.8 16.1334 25.1333 19.7334 25.5333 22.8C26 26.0667 25.3333 28.3334 23.6667 29.3334C23.1333 29.6 22.6 29.7334 22 29.7334ZM8.99999 3.86671C6.79999 5.13338 7.19999 11.4 11.4 18.6667C15.6 25.9334 20.8 29.4 23 28.1334C24.1333 27.4667 24.5333 25.6 24.2 22.9334C23.8 20.0667 22.5333 16.6667 20.6 13.3334C16.4 6.06671 11.2 2.60005 8.99999 3.86671Z" fill="#80DEEA"></path><path d="M16 18.6663C17.4728 18.6663 18.6667 17.4724 18.6667 15.9997C18.6667 14.5269 17.4728 13.333 16 13.333C14.5273 13.333 13.3333 14.5269 13.3333 15.9997C13.3333 17.4724 14.5273 18.6663 16 18.6663Z" fill="#80DEEA"></path></svg>