<svg width="32" height="32" viewBox="0 0 32 32" fill="none" xmlns="http://www.w3.org/2000/svg"><path d="M15.9942 30.3749C15.612 30.3749 15.2241 30.2722 14.8875 30.0782L11.3676 27.996C10.8427 27.6993 11.0994 27.5967 11.2706 27.5396C11.9722 27.2942 12.1149 27.243 12.8622 26.8151C12.9421 26.7695 13.0448 26.7865 13.1246 26.8379L15.8287 28.4409C15.9257 28.4979 16.0626 28.4979 16.1539 28.4409L26.6909 22.3594C26.7879 22.3024 26.8506 22.1883 26.8506 22.0742V9.91137C26.8506 9.79156 26.7879 9.68319 26.6852 9.6205L16.1539 3.54469C16.057 3.48762 15.9258 3.48762 15.8288 3.54469L5.30325 9.62612C5.2005 9.68319 5.13781 9.79725 5.13781 9.91706V22.0742C5.13781 22.1883 5.2005 22.3024 5.30325 22.3538L8.19 24.0196C9.75887 24.8011 10.7172 23.8827 10.7172 22.9529V10.9496C10.7172 10.7785 10.8541 10.6473 11.0254 10.6473H12.3603C12.5257 10.6473 12.6683 10.7785 12.6683 10.9496V22.9586C12.6683 25.0465 11.5273 26.2446 9.54781 26.2446C8.93731 26.2446 8.45812 26.2446 7.12319 25.5828L4.362 23.9911C3.67737 23.5974 3.25525 22.8615 3.25525 22.0686V9.91137C3.25525 9.12412 3.67737 8.3825 4.362 7.98887L14.8875 1.90737C15.5549 1.53088 16.4392 1.53088 17.101 1.90737L27.6381 7.9945C28.3227 8.38812 28.7448 9.12406 28.7448 9.91706V22.0742C28.7448 22.8615 28.3227 23.5974 27.6381 23.9968L17.101 30.0782C16.7644 30.2722 16.3821 30.3749 15.9942 30.3749ZM24.5004 18.3889C24.5004 16.1126 22.96 15.5079 19.7254 15.0801C16.4506 14.6465 16.1198 14.424 16.1198 13.6596C16.1198 13.0264 16.3994 12.182 18.8239 12.182C20.9862 12.182 21.7849 12.6498 22.1157 14.1103C22.1443 14.2472 22.2699 14.3499 22.4123 14.3499H23.7817C23.8671 14.3499 23.947 14.3157 24.0041 14.2529C24.0612 14.1902 24.0897 14.1046 24.0838 14.0189C23.8729 11.5032 22.2012 10.3336 18.8239 10.3336C15.8175 10.3336 14.0262 11.6001 14.0262 13.7281C14.0262 16.0328 15.8117 16.6719 18.6927 16.9569C22.1442 17.2936 22.4123 17.8014 22.4123 18.4802C22.4123 19.6556 21.4654 20.1574 19.2462 20.1574C16.4565 20.1574 15.846 19.4557 15.6406 18.0696C15.6178 17.9212 15.4922 17.8129 15.3383 17.8129H13.9747C13.8036 17.8129 13.6725 17.9498 13.6725 18.1151C13.6725 19.8895 14.6366 22.006 19.2519 22.006C22.5835 22.0002 24.5004 20.6822 24.5004 18.3889Z" fill="#539E43"></path></svg>