<svg width="24" height="24" viewBox="0 0 24 24" fill="none" xmlns="http://www.w3.org/2000/svg"><path fill-rule="evenodd" clip-rule="evenodd" d="M3 3V21H21V3H3ZM16.2875 17.574C15.491 17.574 15.115 17.0355 14.769 16.4735L13.5 17.316C13.974 18.2475 14.8255 19 16.325 19C17.858 19 19 18.2075 19 16.7615C19 15.4195 18.226 14.8225 16.8535 14.238L16.45 14.066C15.7575 13.7675 15.4575 13.5725 15.4575 13.0905C15.4575 12.7005 15.757 12.402 16.23 12.402C16.6935 12.402 16.9925 12.5965 17.269 13.0905L18.526 12.287C17.994 11.356 17.2565 11.0005 16.23 11.0005C14.7885 11.0005 13.866 11.9175 13.866 13.1225C13.866 14.43 14.6405 15.049 15.805 15.543L16.2085 15.715C16.9445 16.0355 17.3075 16.231 17.3075 16.7815C17.3075 17.2415 16.9565 17.574 16.2875 17.574ZM10.1665 17.316C9.6135 17.316 9.229 16.9675 8.976 16.5145L7.6665 17.316C8.0455 18.127 8.9755 19 10.264 19C11.69 19 12.6665 18.234 12.6665 16.5505V11H11V16.2945C11 17.107 10.6955 17.316 10.1665 17.316Z" fill="white"></path></svg>